<svg xmlns="http://www.w3.org/2000/svg" width="153.744" height="130" viewBox="0 0 153.744 130"><defs><style>.a{fill:#ffce32;}.b{fill:#fff3ca;}.c{fill:#002f35;fill-rule:evenodd;}.d{fill:#ffe894;}.e{fill:#ff4134;}</style></defs><g transform="translate(-822.842 -1026.865)"><g transform="translate(846.593 1045.749)"><path class="a" d="M106.417,60.044a14.3,14.3,0,0,1,9.17-13.336,56.661,56.661,0,0,0-6.856-16.518,14.486,14.486,0,0,1-5.815,1.244A14.263,14.263,0,0,1,89.869,11.356,56.49,56.49,0,0,0,73.38,4.5a14.308,14.308,0,0,1-13.336,9.17A14.308,14.308,0,0,1,46.707,4.5a56.662,56.662,0,0,0-16.518,6.856A14.263,14.263,0,0,1,17.142,31.433a14.015,14.015,0,0,1-5.815-1.244A57.914,57.914,0,0,0,4.5,46.736a14.278,14.278,0,0,1,9.17,13.336A14.311,14.311,0,0,1,4.529,73.409a56.662,56.662,0,0,0,6.856,16.518A14.269,14.269,0,0,1,30.218,108.76a56.992,56.992,0,0,0,16.518,6.856,14.256,14.256,0,0,1,26.615,0,56.661,56.661,0,0,0,16.518-6.856A14.283,14.283,0,0,1,108.7,89.927a56.992,56.992,0,0,0,6.856-16.518A14.363,14.363,0,0,1,106.417,60.044ZM60.3,83.158A23.143,23.143,0,1,1,83.447,60.015,23.137,23.137,0,0,1,60.3,83.158Z" transform="translate(-4.5 -4.5)"/><g transform="translate(21.743 21.155)"><circle class="b" cx="34.084" cy="34.084" r="34.084"/><g transform="translate(17.661 21.8)"><path class="c" d="M73.786,41.1a7.733,7.733,0,1,0,7.733,7.733A7.733,7.733,0,0,0,73.786,41.1m0,10.053a2.32,2.32,0,1,1,2.32-2.32,2.323,2.323,0,0,1-2.32,2.32" transform="translate(-66.053 -41.097)"/><path class="c" d="M104.925,48l-1.64-1.64h-2.141V48.5l1.64,1.64-1.64,1.64v2.141h2.141l1.64-1.639,1.64,1.639h2.141V51.781l-1.64-1.64,1.64-1.64V46.36h-2.141Z" transform="translate(-80.523 -43.267)"/><path class="c" d="M84.634,80.5c-5.428-.1-9.233-4.286-9.271-4.329l0,0-2.3,2.073c.189.213,4.69,5.218,11.469,5.362q.151,0,.3,0c4.51,0,8.875-2.16,12.977-6.424L95.61,75.019c-3.564,3.7-7.261,5.542-10.976,5.479" transform="translate(-68.946 -55.085)"/></g></g></g><path class="d" d="M32.419,17.668a4.547,4.547,0,0,1,2.917-4.242,18.024,18.024,0,0,0-2.181-5.254,4.608,4.608,0,0,1-1.85.4,4.537,4.537,0,0,1-4.15-6.386A17.969,17.969,0,0,0,21.91,0a4.551,4.551,0,0,1-4.242,2.917A4.551,4.551,0,0,1,13.426,0,18.024,18.024,0,0,0,8.172,2.181a4.537,4.537,0,0,1-4.15,6.386,4.458,4.458,0,0,1-1.85-.4A18.422,18.422,0,0,0,0,13.435a4.542,4.542,0,0,1,2.917,4.242A4.552,4.552,0,0,1,.009,21.92,18.024,18.024,0,0,0,2.19,27.174a4.539,4.539,0,0,1,5.991,5.991,18.129,18.129,0,0,0,5.254,2.181,4.535,4.535,0,0,1,8.466,0,18.024,18.024,0,0,0,5.254-2.181,4.543,4.543,0,0,1,5.991-5.991,18.129,18.129,0,0,0,2.181-5.254A4.569,4.569,0,0,1,32.419,17.668ZM17.751,25.021a7.362,7.362,0,1,1,7.362-7.362A7.36,7.36,0,0,1,17.751,25.021Z" transform="translate(930.582 1040.102) rotate(-22)"/><g transform="translate(817.51 1054.661) rotate(-8)"><rect class="e" width="12.744" height="6.05" transform="matrix(-0.193, -0.981, 0.981, -0.193, 34.836, 13.673)"/><rect class="e" width="12.739" height="6.048" transform="translate(18.371 22.424) rotate(-135.077)"/><rect class="e" width="12.743" height="6.045" transform="matrix(-0.981, -0.193, 0.193, -0.981, 12.504, 40.771)"/></g></g></svg>