<svg xmlns="http://www.w3.org/2000/svg" xmlns:xlink="http://www.w3.org/1999/xlink" width="131.479" height="130" viewBox="0 0 131.479 130"><defs><style>.a{fill:none;}.b,.h{fill:#23e5db;}.c{fill:#002f35;}.d{fill:#ffce32;}.e{fill:#d2b982;}.f{clip-path:url(#a);}.g{fill:#cbf7ee;}.g,.h{fill-rule:evenodd;}</style><clipPath id="a"><rect class="a" width="75.9" height="60.154"/></clipPath></defs><g transform="translate(-854 -393)"><g transform="translate(891.985 407.021)"><g transform="translate(0 82.504)"><path class="b" d="M374.549,785.339H394V770.816l-2.446-2.447-2.442,2.442-2.433-2.433-2.424,2.425-2.424-2.425L379.4,770.8l-2.424-2.425-2.446,2.446Z" transform="translate(-300.504 -765.19)"/><rect class="c" width="60.837" height="6.823" transform="translate(32.657 13.326)"/><path class="d" d="M293.628,774.181a6.732,6.732,0,1,1-6.732,6.732,6.74,6.74,0,0,1,6.732-6.732m0-10.005a16.737,16.737,0,1,0,16.737,16.737,16.737,16.737,0,0,0-16.737-16.737Z" transform="translate(-276.89 -764.176)"/></g><g transform="translate(10.077 0)"><path class="c" d="M326.989,664.169c5.87-.766,11.888.839,15.707,4.191,3.171,2.782,4.779,6.649,4.779,11.493l.011,43.734-35.109.009-.011-43.734c0-12.788,11.191-15.245,14.622-15.693Zm-1.119-8.552c-11.61,1.518-22.132,9.6-22.129,24.247l0,52.647L356.1,732.5l0-52.646c0-18.024-15.942-26.1-30.23-24.234Z" transform="translate(-293.46 -655.354)"/><path class="d" d="M355.366,741.488l-57.424.014-7.753-7.749-.008-33.45,7.749-7.753,57.424-.014,7.754,7.749.008,33.45Z" transform="translate(-290.181 -664.346)"/><path class="e" d="M369.14,700.285l.009,33.45-7.75,7.754-46.274.01,46.262-48.964Z" transform="translate(-296.213 -664.346)"/><path class="c" d="M337.929,721.074a5.957,5.957,0,1,0-3.794-.018l-5.92,11.705,7.814,0,7.814,0Z" transform="translate(-299.379 -668.442)"/></g></g><g transform="translate(854 393)"><g class="f"><path class="g" d="M64.031,13.134A21.848,21.848,0,1,0,85.878,34.982,21.848,21.848,0,0,0,64.031,13.134" transform="translate(-23.82 -7.417)"/><path class="h" d="M80.062,46.4a24.311,24.311,0,1,0-4.032,4.032ZM61.046,49.947A18.535,18.535,0,1,1,79.582,31.412,18.556,18.556,0,0,1,61.046,49.947" transform="translate(-20.785 -4.051)"/><path class="d" d="M19.639,4.925l2.094,2.093L19.639,9.112,17.545,7.019Zm0-4.925L12.62,7.019l7.019,7.019,7.019-7.019Z" transform="translate(-7.126)"/><path class="d" d="M5.911,40.742,0,34.831l5.911-5.91,5.91,5.91Zm-.986-5.911.986.986.985-.986-.985-.986Z" transform="translate(0 -16.331)"/><path class="d" d="M49.257,106.647l2.037,2.038-2.037,2.037-2.037-2.037Zm0-4.925-6.962,6.962,6.962,6.962,6.962-6.962Z" transform="translate(-23.883 -57.441)"/></g><path class="c" d="M8.1,22.01.349,14.26a1.192,1.192,0,0,1,0-1.686l1.686-1.686a1.192,1.192,0,0,1,1.686,0l5.221,5.221L20.125,4.926a1.192,1.192,0,0,1,1.686,0L23.5,6.613a1.192,1.192,0,0,1,0,1.686L9.785,22.01A1.192,1.192,0,0,1,8.1,22.01Z" transform="translate(28.732 14.867)"/></g></g></svg>