<svg xmlns="http://www.w3.org/2000/svg" width="152.986" height="122.577" viewBox="0 0 152.986 122.577"><defs><style>.a{fill:#23e5db;}.b,.f{fill:#ffce32;}.c{fill:#d2b982;}.d{fill:#f8fbcf;}.e,.g{fill:#002f35;}.f,.g{fill-rule:evenodd;}</style></defs><g transform="translate(-849.633 -1027)"><g transform="translate(849.633 1027)"><rect class="a" width="24.697" height="5.578" transform="matrix(0.707, -0.707, 0.707, 0.707, 28.628, 118.633)"/><rect class="a" width="24.697" height="5.578" transform="matrix(0.707, -0.707, 0.707, 0.707, 0, 90.079)"/><path class="b" d="M1402.018,673.686v74.64l-3.845,3.845h-65.516c-1.509-1.5-2.346-2.346-3.845-3.845v-87.9c1.5-1.5,2.337-2.346,3.845-3.846h52.26Z" transform="translate(-1299.042 -656.584)"/><path class="c" d="M1408.324,716.5V760.11l-3.845,3.845h-43.607Z" transform="translate(-1305.347 -668.536)"/><path class="d" d="M1415.754,673.686h-17.1v-17.1Z" transform="translate(-1312.778 -656.584)"/><g transform="translate(46.495 30.037)"><rect class="e" width="43.477" height="4.82"/><rect class="e" width="43.477" height="4.82" transform="translate(0 8.913)"/><rect class="e" width="43.477" height="4.82" transform="translate(0 17.826)"/><rect class="e" width="43.477" height="4.82" transform="translate(0 26.739)"/><rect class="e" width="43.477" height="4.82" transform="translate(0 35.652)"/></g><rect class="a" width="37.922" height="5.578" transform="matrix(0.707, -0.707, 0.707, 0.707, 2.959, 65.026)"/><rect class="a" width="33.611" height="5.578" transform="matrix(0.707, -0.707, 0.707, 0.707, 56.339, 113.067)"/><rect class="a" width="51.626" height="5.578" transform="matrix(0.707, -0.707, 0.707, 0.707, 1.459, 117.72)"/></g><g transform="translate(973.892 1111.967) rotate(-141)"><path class="f" d="M6.313,0a6.313,6.313,0,1,0,6.313,6.313A6.313,6.313,0,0,0,6.313,0Zm0,8.207A1.894,1.894,0,1,1,8.207,6.313,1.9,1.9,0,0,1,6.313,8.207Z" transform="translate(0 19.378)"/><path class="f" d="M3.087,1.339,1.748,0H0V1.748L1.338,3.087,0,4.425V6.173H1.748L3.087,4.835,4.425,6.173H6.173V4.425L4.835,3.087,6.173,1.748V0H4.425Z" transform="translate(9.749 0)"/><path class="f" d="M5.605,2.431,3.175,0H0V3.175l2.431,2.43L0,8.036V11.21H3.175L5.605,8.78,8.036,11.21H11.21V8.036L8.78,5.605l2.43-2.43V0H8.036Z" transform="matrix(0.848, 0.53, -0.53, 0.848, 22.59, 39.756)"/><path class="g" d="M2.239,0A2.239,2.239,0,1,0,4.478,2.239,2.239,2.239,0,0,0,2.239,0Zm0,2.911a.672.672,0,1,1,.672-.672A.673.673,0,0,1,2.239,2.911Z" transform="translate(21.259 19.378)"/><path class="g" d="M2.239,0A2.239,2.239,0,1,0,4.478,2.239,2.239,2.239,0,0,0,2.239,0Zm0,2.911a.672.672,0,1,1,.672-.672A.673.673,0,0,1,2.239,2.911Z" transform="translate(3.221 45.147)"/></g></g></svg>