<?xml version="1.0" standalone="no"?>
<svg xmlns="http://www.w3.org/2000/svg" version="1.1" xmlns:xlink="http://www.w3.org/1999/xlink" xmlns:svgjs="http://svgjs.com/svgjs" width="1080" height="1080" viewBox="0 0 356 356"><rect width="356" height="356" x="0" y="0" fill="#002f34"/><path class="body" d="M66.9,356c0-61.4,49.7-111.1,111.1-111.1S289.1,294.7,289.1,356" fill="#23e5db"/><path class="head-shadow" d="M230.6,258.1c-15.6-8.4-33.5-13.2-52.6-13.2c-12.8,0-25.1,2.2-36.6,6.2c14,10.5,31.3,16.7,50.1,16.7 C205.6,267.8,218.9,264.3,230.6,258.1z"/><circle class="head" cx="178" cy="177.1" r="85.7" fill="#cbf7ee"/><path class="hair" d="M263.4,193.9c1.9-1.2,3.1-3.2,3.1-5.5v-25.9c0-20.3-4.2-35.7-11-47.2c8.8-9.7,10.8-22.2,7.6-34.1&#10;    &#9;&#9;&#9;&#9;&#9;&#9;&#9;&#9;&#9;C251,91.7,223,75.6,203.5,70c-19.7-5.7-114.7-21-114.7,83.7v34.8c0,2.2,1.2,4.3,3.1,5.5l3,1.8c2.1,1.3,4.9-0.2,4.9-2.7v-28.7&#10;    &#9;&#9;&#9;&#9;&#9;&#9;&#9;&#9;&#9;c0-6.3,2.5-20.7,14.2-30.6c11.1-9.3,21.3-13.7,50-7.3c30.9,6.9,53.6,6.5,69.6,1.7c2.7,1.5,5.2,3.4,7.7,5.6&#10;    &#9;&#9;&#9;&#9;&#9;&#9;&#9;&#9;&#9;c11.7,9.8,14.2,24.3,14.2,30.6V193c0,2.5,2.7,4,4.9,2.7L263.4,193.9z" fill="#00a49f"/><path class="hair" d="M244.3,98.3c5.7-8.5,5.8-18.5,2-27.3c-8.1,9.5-31.7,0.3-47.5-1.8" fill="#00a49f"/><path class="hair" d="M227.1,93.1c4.7-9.1,3.5-19.1-1.4-27.4c-6.9,10.5-31.5,4.1-47.3,3.9" fill="#00a49f"/><path class="eyes" d="M203.5,151.2c-14.3,0-26,11.6-26,26c0,14.3,11.6,26,26,26c14.3,0,26-11.6,26-26&#10;    &#9;&#9;&#9;&#9;&#9;&#9;&#9;&#9;&#9;C229.5,162.8,217.8,151.2,203.5,151.2z M203.5,185c-4.3,0-7.9-3.5-7.9-7.9c0-4.3,3.5-7.9,7.9-7.9s7.9,3.5,7.9,7.9&#10;    &#9;&#9;&#9;&#9;&#9;&#9;&#9;&#9;&#9;C211.4,181.5,207.8,185,203.5,185z" fill="#002f34"/><path class="eyes" d="M146.1,157.6c-10.8,0-19.6,8.8-19.6,19.6c0,10.8,8.8,19.6,19.6,19.6s19.6-8.8,19.6-19.6&#10;    &#9;&#9;&#9;&#9;&#9;&#9;&#9;&#9;&#9;C165.7,166.3,157,157.6,146.1,157.6z M146.1,183.1c-3.3,0-5.9-2.7-5.9-5.9s2.7-5.9,5.9-5.9s5.9,2.7,5.9,5.9&#10;    &#9;&#9;&#9;&#9;&#9;&#9;&#9;&#9;&#9;S149.4,183.1,146.1,183.1z" fill="#002f34"/></svg>