<svg xmlns="http://www.w3.org/2000/svg" width="75.39" height="93.521" viewBox="0 0 75.39 93.521"><defs><style>.a{fill:#3a77ff;}.b{fill:#002f35;}.c{fill:#ffce32;}.d{fill:#d2b982;}</style></defs><g transform="translate(-276.89 -655.354)"><g transform="translate(276.89 721.883)"><path class="a" d="M374.546,782.053h15.683V770.342l-1.973-1.973-1.969,1.969-1.962-1.962-1.955,1.955-1.955-1.955-1.955,1.955-1.955-1.955-1.973,1.973Z" transform="translate(-314.839 -765.806)"/><rect class="b" width="49.057" height="5.502" transform="translate(26.334 10.745)"/><path class="c" d="M290.387,772.244a5.429,5.429,0,1,1-5.429,5.428,5.435,5.435,0,0,1,5.429-5.428m0-8.068a13.5,13.5,0,1,0,13.5,13.5,13.5,13.5,0,0,0-13.5-13.5Z" transform="translate(-276.89 -764.176)"/></g><g transform="translate(285.016 655.354)"><path class="b" d="M322.487,662.462c4.733-.618,9.586.677,12.665,3.38a11.743,11.743,0,0,1,3.854,9.268l.009,35.266-28.311.007-.009-35.266c0-10.312,9.024-12.293,11.791-12.654Zm-.9-6.9c-9.362,1.224-17.847,7.742-17.844,19.552l0,42.452,42.22-.01,0-42.452c0-14.534-12.855-21.046-24.376-19.541Z" transform="translate(-295.451 -655.354)"/><path class="c" d="M342.744,732.01l-46.3.011-6.252-6.249-.007-26.973,6.249-6.252,46.3-.012,6.252,6.249.007,26.973Z" transform="translate(-290.181 -669.805)"/><path class="d" d="M358.68,698.785l.008,26.973-6.25,6.253-37.314.008,37.3-39.483Z" transform="translate(-299.875 -669.805)"/><path class="b" d="M336.049,718.827a4.8,4.8,0,1,0-3.059-.015l-4.773,9.439,6.3,0h6.3Z" transform="translate(-304.963 -676.387)"/></g></g></svg>