<svg xmlns="http://www.w3.org/2000/svg" width="238.982" height="33.57" viewBox="0 0 238.982 33.57"><defs><style>.a{fill:#ff4131;}.a,.b{fill-rule:evenodd;}.b{fill:#002f35;}</style></defs><g transform="translate(-500.665 -888.805)"><path class="a" d="M10.757,21.514A10.757,10.757,0,1,1,21.513,10.757,10.757,10.757,0,0,1,10.757,21.514Zm0-13.984a3.227,3.227,0,1,0,3.227,3.227A3.231,3.231,0,0,0,10.757,7.53Z" transform="matrix(0.391, 0.921, -0.921, 0.391, 569.425, 888.805)"/><path class="a" d="M5.259,8.237l-2.28,2.281H0V7.539l2.28-2.28L0,2.979V0H2.978l2.28,2.281L7.54,0h2.978V2.979l-2.28,2.28,2.28,2.28v2.979H7.54Z" transform="matrix(0.391, 0.921, -0.921, 0.391, 510.347, 901.804)"/><path class="a" d="M8.4,13.155,4.757,16.8H0V12.04L3.642,8.4,0,4.757V0H4.757L8.4,3.642,12.041,0H16.8V4.757L13.156,8.4,16.8,12.04V16.8H12.041Z" transform="matrix(0.819, 0.574, -0.574, 0.819, 626.934, 898.98)"/><path class="b" d="M3.815,7.63A3.815,3.815,0,1,1,7.63,3.815,3.815,3.815,0,0,1,3.815,7.63Zm0-4.96A1.145,1.145,0,1,0,4.96,3.815,1.146,1.146,0,0,0,3.815,2.671Z" transform="matrix(0.391, 0.921, -0.921, 0.391, 538.088, 912.26)"/><path class="b" d="M3.815,7.63A3.815,3.815,0,1,1,7.63,3.815,3.815,3.815,0,0,1,3.815,7.63Zm0-4.96A1.145,1.145,0,1,0,4.96,3.815,1.146,1.146,0,0,0,3.815,2.671Z" transform="matrix(0.391, 0.921, -0.921, 0.391, 597.813, 893.262)"/><path class="b" d="M4.007,8.014A4.007,4.007,0,1,1,8.014,4.007,4.007,4.007,0,0,1,4.007,8.014Zm0-5.209a1.2,1.2,0,1,0,1.2,1.2A1.2,1.2,0,0,0,4.007,2.8Z" transform="matrix(0.391, 0.921, -0.921, 0.391, 662.046, 910.855)"/><path class="a" d="M6.86,13.72a6.86,6.86,0,1,1,6.86-6.86A6.86,6.86,0,0,1,6.86,13.72Zm0-8.918A2.058,2.058,0,1,0,8.918,6.86,2.061,2.061,0,0,0,6.86,4.8Z" transform="matrix(0.391, 0.921, -0.921, 0.391, 693.096, 889.066)"/><path class="a" d="M3.571,5.593,2.022,7.142H0V5.119L1.549,3.571,0,2.023V0H2.022L3.571,1.549,5.12,0H7.142V2.023L5.594,3.571,7.142,5.119V7.142H5.12Z" transform="matrix(0.391, 0.921, -0.921, 0.391, 721.528, 911.799)"/><path class="b" d="M4.007,8.014A4.007,4.007,0,1,1,8.014,4.007,4.007,4.007,0,0,1,4.007,8.014Zm0-5.209a1.2,1.2,0,1,0,1.2,1.2A1.2,1.2,0,0,0,4.007,2.8Z" transform="matrix(0.391, 0.921, -0.921, 0.391, 736.516, 892.063)"/></g></svg>